<svg width="142" height="25" viewBox="0 0 142 25" fill="none" xmlns="http://www.w3.org/2000/svg">
<path fill-rule="evenodd" clip-rule="evenodd" d="M7.72125 5.06869C8.06971 5.21777 8.27769 5.57922 8.23147 5.9554L7.69537 10.3188H12.6141C12.9432 10.3188 13.2429 10.5084 13.3837 10.8059C13.5246 11.1033 13.4814 11.4553 13.2729 11.7099L6.73809 19.688C6.49793 19.9812 6.09288 20.0804 5.74442 19.9313C5.39596 19.7822 5.18798 19.4208 5.2342 19.0446L5.7703 14.6812H0.851521C0.522422 14.6812 0.222786 14.4916 0.0819368 14.1941C-0.0589125 13.8967 -0.0157559 13.5447 0.19278 13.2901L6.72757 5.31199C6.96773 5.01879 7.37278 4.91961 7.72125 5.06869ZM2.64968 12.9782H6.73283C6.97676 12.9782 7.20897 13.0828 7.3706 13.2655C7.53222 13.4482 7.60774 13.6914 7.57799 13.9335L7.2829 16.3353L10.816 12.0218H6.73283C6.4889 12.0218 6.25669 11.9172 6.09507 11.7345C5.93344 11.5518 5.85793 11.3086 5.88768 11.0665L6.18276 8.66474L2.64968 12.9782Z" fill="#7F56D9"/>
<path d="M138.572 18.189C137.887 18.189 137.278 18.0718 136.743 17.8374C136.209 17.603 135.787 17.2842 135.478 16.881C135.168 16.4685 134.995 16.009 134.957 15.5027H137.334C137.362 15.7746 137.489 15.995 137.714 16.1637C137.939 16.3325 138.215 16.4169 138.544 16.4169C138.844 16.4169 139.073 16.3606 139.233 16.2481C139.402 16.1262 139.486 15.9715 139.486 15.784C139.486 15.559 139.369 15.3949 139.134 15.2918C138.9 15.1793 138.52 15.0574 137.995 14.9261C137.433 14.7948 136.964 14.6589 136.589 14.5182C136.214 14.3682 135.89 14.1385 135.618 13.8291C135.346 13.5103 135.21 13.0837 135.21 12.5493C135.21 12.0992 135.332 11.6914 135.576 11.3257C135.829 10.9507 136.195 10.6553 136.673 10.4397C137.161 10.224 137.737 10.1162 138.403 10.1162C139.387 10.1162 140.161 10.36 140.724 10.8475C141.295 11.3351 141.624 11.982 141.708 12.7884H139.486C139.448 12.5165 139.326 12.3008 139.12 12.1414C138.923 11.982 138.661 11.9023 138.333 11.9023C138.051 11.9023 137.836 11.9586 137.686 12.0711C137.536 12.1742 137.461 12.3196 137.461 12.5071C137.461 12.7321 137.578 12.9009 137.812 13.0134C138.056 13.1259 138.431 13.2384 138.937 13.3509C139.519 13.5009 139.992 13.651 140.358 13.801C140.724 13.9416 141.042 14.176 141.314 14.5042C141.595 14.823 141.741 15.2543 141.75 15.7981C141.75 16.2575 141.619 16.67 141.356 17.0357C141.103 17.392 140.733 17.6733 140.245 17.8795C139.767 18.0858 139.209 18.189 138.572 18.189Z" fill="#7F56D9"/>
<path d="M126.385 14.1526C126.385 13.3369 126.55 12.6243 126.878 12.0149C127.215 11.4054 127.679 10.9366 128.27 10.6085C128.87 10.2803 129.555 10.1162 130.323 10.1162C131.308 10.1162 132.128 10.3741 132.785 10.8897C133.45 11.4054 133.886 12.1321 134.093 13.0697H131.533C131.317 12.4696 130.9 12.1696 130.281 12.1696C129.841 12.1696 129.489 12.343 129.226 12.6899C128.964 13.0275 128.833 13.515 128.833 14.1526C128.833 14.7901 128.964 15.2824 129.226 15.6293C129.489 15.9668 129.841 16.1356 130.281 16.1356C130.9 16.1356 131.317 15.8356 131.533 15.2355H134.093C133.886 16.1544 133.45 16.8763 132.785 17.4014C132.119 17.9264 131.299 18.189 130.323 18.189C129.555 18.189 128.87 18.0249 128.27 17.6967C127.679 17.3686 127.215 16.8998 126.878 16.2903C126.55 15.6809 126.385 14.9683 126.385 14.1526Z" fill="#7F56D9"/>
<path d="M121.481 18.189C120.713 18.189 120.019 18.0249 119.4 17.6967C118.79 17.3686 118.308 16.8998 117.951 16.2903C117.604 15.6809 117.431 14.9683 117.431 14.1526C117.431 13.3462 117.609 12.6384 117.965 12.0289C118.322 11.4101 118.809 10.9366 119.428 10.6085C120.047 10.2803 120.741 10.1162 121.509 10.1162C122.278 10.1162 122.972 10.2803 123.591 10.6085C124.21 10.9366 124.697 11.4101 125.054 12.0289C125.41 12.6384 125.588 13.3462 125.588 14.1526C125.588 14.9589 125.405 15.6715 125.04 16.2903C124.683 16.8998 124.191 17.3686 123.563 17.6967C122.944 18.0249 122.25 18.189 121.481 18.189ZM121.481 16.1075C121.941 16.1075 122.33 15.9387 122.649 15.6012C122.977 15.2636 123.141 14.7808 123.141 14.1526C123.141 13.5244 122.982 13.0415 122.663 12.704C122.353 12.3665 121.969 12.1977 121.509 12.1977C121.041 12.1977 120.652 12.3665 120.342 12.704C120.033 13.0321 119.878 13.515 119.878 14.1526C119.878 14.7808 120.028 15.2636 120.328 15.6012C120.637 15.9387 121.022 16.1075 121.481 16.1075Z" fill="#7F56D9"/>
<path d="M111.39 8.20312C112.43 8.20312 113.34 8.4094 114.118 8.82194C114.896 9.23449 115.496 9.8158 115.918 10.5659C116.349 11.3066 116.565 12.1645 116.565 13.1396C116.565 14.1053 116.349 14.9632 115.918 15.7133C115.496 16.4634 114.891 17.0447 114.104 17.4572C113.326 17.8698 112.421 18.0761 111.39 18.0761H107.691V8.20312H111.39ZM111.235 15.9946C112.144 15.9946 112.852 15.7461 113.358 15.2492C113.865 14.7523 114.118 14.0491 114.118 13.1396C114.118 12.2301 113.865 11.5222 113.358 11.0159C112.852 10.5096 112.144 10.2565 111.235 10.2565H110.096V15.9946H111.235Z" fill="#7F56D9"/>
<path d="M100.06 18.189C99.376 18.189 98.7666 18.0718 98.2322 17.8374C97.6977 17.603 97.2758 17.2842 96.9664 16.881C96.657 16.4685 96.4835 16.009 96.446 15.5027H98.8229C98.851 15.7746 98.9776 15.995 99.2026 16.1637C99.4276 16.3325 99.7042 16.4169 100.032 16.4169C100.332 16.4169 100.562 16.3606 100.722 16.2481C100.89 16.1262 100.975 15.9715 100.975 15.784C100.975 15.559 100.857 15.3949 100.623 15.2918C100.389 15.1793 100.009 15.0574 99.4839 14.9261C98.9213 14.7948 98.4525 14.6589 98.0775 14.5182C97.7024 14.3682 97.379 14.1385 97.1071 13.8291C96.8351 13.5103 96.6992 13.0837 96.6992 12.5493C96.6992 12.0992 96.8211 11.6914 97.0649 11.3257C97.318 10.9507 97.6837 10.6553 98.1619 10.4397C98.6494 10.224 99.226 10.1162 99.8917 10.1162C100.876 10.1162 101.65 10.36 102.212 10.8475C102.784 11.3351 103.112 11.982 103.197 12.7884H100.975C100.937 12.5165 100.815 12.3008 100.609 12.1414C100.412 11.982 100.15 11.9023 99.8214 11.9023C99.5401 11.9023 99.3245 11.9586 99.1745 12.0711C99.0244 12.1742 98.9494 12.3196 98.9494 12.5071C98.9494 12.7321 99.0666 12.9009 99.301 13.0134C99.5448 13.1259 99.9199 13.2384 100.426 13.3509C101.007 13.5009 101.481 13.651 101.847 13.801C102.212 13.9416 102.531 14.176 102.803 14.5042C103.084 14.823 103.23 15.2543 103.239 15.7981C103.239 16.2575 103.108 16.67 102.845 17.0357C102.592 17.392 102.222 17.6733 101.734 17.8795C101.256 18.0858 100.698 18.189 100.06 18.189Z" fill="#7F56D9"/>
<path d="M87.8745 14.1526C87.8745 13.3369 88.0386 12.6243 88.3667 12.0149C88.7043 11.4054 89.1684 10.9366 89.7591 10.6085C90.3592 10.2803 91.0436 10.1162 91.8124 10.1162C92.7969 10.1162 93.6173 10.3741 94.2736 10.8897C94.9393 11.4054 95.3753 12.1321 95.5816 13.0697H93.0219C92.8063 12.4696 92.3891 12.1696 91.7702 12.1696C91.3296 12.1696 90.978 12.343 90.7154 12.6899C90.4529 13.0275 90.3216 13.515 90.3216 14.1526C90.3216 14.7901 90.4529 15.2824 90.7154 15.6293C90.978 15.9668 91.3296 16.1356 91.7702 16.1356C92.3891 16.1356 92.8063 15.8356 93.0219 15.2355H95.5816C95.3753 16.1544 94.9393 16.8763 94.2736 17.4014C93.6079 17.9264 92.7875 18.189 91.8124 18.189C91.0436 18.189 90.3592 18.0249 89.7591 17.6967C89.1684 17.3686 88.7043 16.8998 88.3667 16.2903C88.0386 15.6809 87.8745 14.9683 87.8745 14.1526Z" fill="#7F56D9"/>
<path d="M85.4143 9.41336C84.9923 9.41336 84.6454 9.29148 84.3735 9.0477C84.111 8.79455 83.9797 8.48514 83.9797 8.11948C83.9797 7.74444 84.111 7.43503 84.3735 7.19125C84.6454 6.9381 84.9923 6.81152 85.4143 6.81152C85.8268 6.81152 86.1643 6.9381 86.4269 7.19125C86.6988 7.43503 86.8347 7.74444 86.8347 8.11948C86.8347 8.48514 86.6988 8.79455 86.4269 9.0477C86.1643 9.29148 85.8268 9.41336 85.4143 9.41336ZM86.6097 10.2291V18.0768H84.2048V10.2291H86.6097Z" fill="#7F56D9"/>
<path d="M82.8651 16.0375V18.0768H81.6415C80.7695 18.0768 80.0898 17.8659 79.6022 17.4439C79.1147 17.0126 78.8709 16.3141 78.8709 15.3484V12.2262H77.9146V10.2291H78.8709V8.31641H81.2758V10.2291H82.851V12.2262H81.2758V15.3765C81.2758 15.6109 81.3321 15.7797 81.4446 15.8828C81.5571 15.986 81.7446 16.0375 82.0072 16.0375H82.8651Z" fill="#7F56D9"/>
<path d="M68.4678 14.1385C68.4678 13.3322 68.6178 12.6243 68.9178 12.0149C69.2272 11.4054 69.6445 10.9366 70.1695 10.6085C70.6946 10.2803 71.2806 10.1162 71.9275 10.1162C72.4807 10.1162 72.9636 10.2287 73.3761 10.4537C73.798 10.6788 74.1215 10.9741 74.3465 11.3398V10.2287H76.7515V18.0764H74.3465V16.9654C74.1121 17.331 73.784 17.6264 73.3621 17.8514C72.9495 18.0764 72.4666 18.189 71.9135 18.189C71.2759 18.189 70.6946 18.0249 70.1695 17.6967C69.6445 17.3592 69.2272 16.8857 68.9178 16.2762C68.6178 15.6574 68.4678 14.9449 68.4678 14.1385ZM74.3465 14.1526C74.3465 13.5525 74.1778 13.079 73.8402 12.7321C73.5121 12.3852 73.1089 12.2117 72.6307 12.2117C72.1525 12.2117 71.7447 12.3852 71.4072 12.7321C71.079 13.0697 70.9149 13.5385 70.9149 14.1385C70.9149 14.7386 71.079 15.2168 71.4072 15.573C71.7447 15.92 72.1525 16.0934 72.6307 16.0934C73.1089 16.0934 73.5121 15.92 73.8402 15.573C74.1778 15.2261 74.3465 14.7526 74.3465 14.1526Z" fill="#7F56D9"/>
<path d="M64.0714 10.1445C65.0465 10.1445 65.8201 10.4399 66.392 11.0306C66.9733 11.6213 67.264 12.4417 67.264 13.4918V18.0766H64.8731V13.8152C64.8731 13.3089 64.7371 12.9198 64.4652 12.6479C64.2027 12.3666 63.837 12.226 63.3682 12.226C62.8994 12.226 62.5291 12.3666 62.2572 12.6479C61.9946 12.9198 61.8634 13.3089 61.8634 13.8152V18.0766H59.4725V13.8152C59.4725 13.3089 59.3366 12.9198 59.0646 12.6479C58.8021 12.3666 58.4365 12.226 57.9677 12.226C57.4989 12.226 57.1285 12.3666 56.8566 12.6479C56.5941 12.9198 56.4628 13.3089 56.4628 13.8152V18.0766H54.0579V10.2289H56.4628V11.2134C56.7066 10.8852 57.0254 10.6274 57.4192 10.4399C57.813 10.243 58.2583 10.1445 58.7552 10.1445C59.3459 10.1445 59.871 10.2711 60.3304 10.5243C60.7992 10.7774 61.1649 11.1384 61.4274 11.6072C61.6993 11.1759 62.0697 10.8243 62.5385 10.5524C63.0073 10.2805 63.5182 10.1445 64.0714 10.1445Z" fill="#7F56D9"/>
<path d="M52.7892 14.026C52.7892 14.251 52.7751 14.4854 52.747 14.7292H47.3042C47.3417 15.2168 47.4964 15.5918 47.7683 15.8543C48.0496 16.1075 48.3918 16.2341 48.795 16.2341C49.3951 16.2341 49.8123 15.9809 50.0467 15.4746H52.6063C52.4751 15.9903 52.236 16.4544 51.8891 16.8669C51.5515 17.2795 51.1249 17.603 50.6093 17.8374C50.0936 18.0718 49.5169 18.189 48.8794 18.189C48.1105 18.189 47.4261 18.0249 46.826 17.6967C46.226 17.3686 45.7572 16.8998 45.4196 16.2903C45.0821 15.6809 44.9133 14.9683 44.9133 14.1526C44.9133 13.3369 45.0774 12.6243 45.4056 12.0149C45.7431 11.4054 46.2119 10.9366 46.812 10.6085C47.412 10.2803 48.1012 10.1162 48.8794 10.1162C49.6388 10.1162 50.3139 10.2756 50.9046 10.5944C51.4953 10.9132 51.9547 11.3679 52.2829 11.9586C52.6204 12.5493 52.7892 13.2384 52.7892 14.026ZM50.328 13.3931C50.328 12.9806 50.1873 12.6524 49.9061 12.4086C49.6248 12.1649 49.2732 12.043 48.8513 12.043C48.4481 12.043 48.1059 12.1602 47.8246 12.3946C47.5527 12.629 47.3839 12.9618 47.3183 13.3931H50.328Z" fill="#7F56D9"/>
<path d="M40.739 10.1447C41.6391 10.1447 42.361 10.4447 42.9048 11.0448C43.4487 11.6355 43.7206 12.4512 43.7206 13.4919V18.0768H41.3297V13.8154C41.3297 13.2903 41.1937 12.8825 40.9218 12.5918C40.6499 12.3012 40.2843 12.1559 39.8248 12.1559C39.3654 12.1559 38.9997 12.3012 38.7278 12.5918C38.4559 12.8825 38.32 13.2903 38.32 13.8154V18.0768H35.915V7.66943H38.32V11.2839C38.5638 10.937 38.8966 10.6604 39.3185 10.4541C39.7404 10.2478 40.2139 10.1447 40.739 10.1447Z" fill="#7F56D9"/>
<path d="M26.9214 14.1526C26.9214 13.3369 27.0855 12.6243 27.4136 12.0149C27.7512 11.4054 28.2153 10.9366 28.806 10.6085C29.406 10.2803 30.0905 10.1162 30.8593 10.1162C31.8438 10.1162 32.6642 10.3741 33.3205 10.8897C33.9862 11.4054 34.4222 12.1321 34.6285 13.0697H32.0688C31.8532 12.4696 31.4359 12.1696 30.8171 12.1696C30.3764 12.1696 30.0248 12.343 29.7623 12.6899C29.4998 13.0275 29.3685 13.515 29.3685 14.1526C29.3685 14.7901 29.4998 15.2824 29.7623 15.6293C30.0248 15.9668 30.3764 16.1356 30.8171 16.1356C31.4359 16.1356 31.8532 15.8356 32.0688 15.2355H34.6285C34.4222 16.1544 33.9862 16.8763 33.3205 17.4014C32.6548 17.9264 31.8344 18.189 30.8593 18.189C30.0905 18.189 29.406 18.0249 28.806 17.6967C28.2153 17.3686 27.7512 16.8998 27.4136 16.2903C27.0855 15.6809 26.9214 14.9683 26.9214 14.1526Z" fill="#7F56D9"/>
<path d="M22.3191 18.1745C21.5972 18.1745 20.9502 18.0573 20.3783 17.8229C19.8063 17.5885 19.3469 17.2416 19 16.7822C18.6625 16.3228 18.4843 15.7696 18.4656 15.1226H21.0252C21.0627 15.4883 21.1893 15.7696 21.405 15.9665C21.6206 16.154 21.9019 16.2478 22.2488 16.2478C22.6051 16.2478 22.8864 16.1681 23.0926 16.0087C23.2989 15.8399 23.402 15.6102 23.402 15.3195C23.402 15.0758 23.3177 14.8742 23.1489 14.7148C22.9895 14.5554 22.7879 14.4241 22.5441 14.321C22.3097 14.2178 21.9722 14.1006 21.5315 13.9694C20.894 13.7725 20.3736 13.5756 19.9704 13.3787C19.5673 13.1818 19.2203 12.8911 18.9297 12.5067C18.639 12.1223 18.4937 11.6207 18.4937 11.0019C18.4937 10.083 18.8266 9.36576 19.4922 8.85008C20.1579 8.32503 21.0252 8.0625 22.0941 8.0625C23.1817 8.0625 24.0584 8.32503 24.7241 8.85008C25.3898 9.36576 25.746 10.0877 25.7929 11.0159H23.1911C23.1723 10.6972 23.0551 10.4487 22.8395 10.2705C22.6238 10.083 22.3472 9.98927 22.0097 9.98927C21.719 9.98927 21.4846 10.069 21.3065 10.2284C21.1284 10.3784 21.0393 10.5987 21.0393 10.8894C21.0393 11.2081 21.1893 11.4566 21.4893 11.6348C21.7894 11.8129 22.2582 12.0051 22.8957 12.2114C23.5333 12.427 24.049 12.6333 24.4428 12.8302C24.8459 13.0271 25.1929 13.3131 25.4835 13.6881C25.7742 14.0631 25.9195 14.546 25.9195 15.1367C25.9195 15.6993 25.7742 16.2102 25.4835 16.6697C25.2022 17.1291 24.7897 17.4948 24.2459 17.7667C23.7021 18.0386 23.0598 18.1745 22.3191 18.1745Z" fill="#7F56D9"/>
</svg>
